<?xml version="1.0" standalone="no"?>
<!DOCTYPE svg PUBLIC "-//W3C//DTD SVG 20010904//EN"
 "http://www.w3.org/TR/2001/REC-SVG-20010904/DTD/svg10.dtd">
<svg version="1.0" xmlns="http://www.w3.org/2000/svg"
 width="700.000000pt" height="700.000000pt" viewBox="0 0 700.000000 700.000000"
 preserveAspectRatio="xMidYMid meet">
<metadata>
Created by potrace 1.14, written by Peter Selinger 2001-2017
</metadata>
<g transform="translate(0.000000,700.000000) scale(0.100000,-0.100000)"
fill="#000000" stroke="none">
<path d="M1089 6852 l-66 -3 -1 -1127 c0 -620 2 -1134 4 -1143 4 -13 20 -16
94 -16 l90 0 0 1067 0 1068 23 3 c18 4 4502 3 4532 0 7 -1 10 -360 10 -1066 0
-705 3 -1066 10 -1068 5 -2 51 -4 100 -3 l90 1 1 1143 1 1142 -126 0 c-855 3
-4713 4 -4762 2z"/>
<path d="M2605 4293 c-61 -10 -162 -37 -203 -55 -131 -57 -269 -181 -331 -298
-30 -56 -74 -170 -66 -170 2 0 -1 -15 -6 -32 -10 -33 -13 -186 -5 -223 20 -90
29 -120 54 -176 30 -66 102 -169 144 -204 100 -85 195 -139 303 -171 82 -25
285 -25 372 -2 119 33 212 86 301 172 28 27 52 53 52 57 0 3 -36 36 -80 73
l-80 68 -49 -44 c-43 -39 -104 -75 -166 -99 -65 -25 -186 -31 -270 -14 -213
45 -370 242 -364 455 11 326 351 533 664 403 50 -21 126 -71 143 -95 7 -10 17
-18 21 -18 5 0 44 33 87 74 l79 74 -20 22 c-75 83 -261 178 -385 196 -44 7
-169 11 -195 7z"/>
<path d="M3523 4267 c-3 -6 -7 -1054 -4 -1270 l1 -39 313 5 c351 5 374 9 511
80 139 72 262 213 315 363 134 378 -122 794 -529 860 -61 10 -601 11 -607 1z
m687 -258 c340 -162 349 -611 16 -774 -88 -43 -140 -51 -331 -50 l-150 0 -3
433 -2 434 197 -4 198 -3 75 -36z"/>
<path d="M1024 3953 l1 -108 262 -110 c144 -60 264 -112 266 -115 3 -3 -115
-55 -261 -117 l-267 -112 -2 -111 c-1 -60 0 -110 2 -110 3 0 78 32 130 55 130
59 587 255 594 255 15 0 17 20 17 145 l-1 120 -360 157 c-198 87 -365 158
-371 158 -8 0 -11 -34 -10 -107z"/>
<path d="M4799 2871 c-4 -22 -3 -174 1 -180 3 -4 267 -7 588 -7 521 0 582 1
583 15 4 40 5 157 2 167 -4 11 -1172 16 -1174 5z"/>
<path d="M1023 1272 l0 -1137 2476 0 2476 0 1 1138 1 1137 -97 0 c-69 0 -99
-4 -102 -12 -2 -7 -4 -483 -3 -1058 1 -575 -1 -1051 -3 -1057 -3 -10 -469 -13
-2283 -13 l-2279 0 0 1070 0 1070 -94 0 -93 0 0 -1138z"/>
</g>
</svg>
